<svg width="117" height="68" viewBox="0 0 117 68" fill="none" xmlns="http://www.w3.org/2000/svg">
<path d="M32.04 48.684L25.56 49.692L23.4 47.136C22.368 47.76 21.228 48.204 19.98 48.468C18.756 48.756 17.412 48.9 15.948 48.9C11.604 48.9 8.016 47.508 5.184 44.724C2.352 41.94 0.936 38.352 0.936 33.96C0.936 29.856 2.46 26.508 5.508 23.916C8.556 21.3 12.036 19.992 15.948 19.992C20.172 19.992 23.724 21.312 26.604 23.952C29.508 26.592 30.96 30.12 30.96 34.536C30.96 36.336 30.66 38.028 30.06 39.612C29.46 41.172 28.596 42.66 27.468 44.076L32.04 48.684ZM20.448 36.552L22.356 38.532C22.668 38.124 22.92 37.668 23.112 37.164C23.304 36.66 23.448 36.144 23.544 35.616C23.568 35.448 23.58 35.28 23.58 35.112C23.604 34.92 23.616 34.74 23.616 34.572C23.616 32.532 22.872 30.732 21.384 29.172C19.92 27.612 18.12 26.832 15.984 26.832C13.872 26.832 12.06 27.564 10.548 29.028C9.036 30.468 8.28 32.124 8.28 33.996C8.28 36.324 9.036 38.256 10.548 39.792C12.06 41.328 13.872 42.096 15.984 42.096C16.344 42.096 16.704 42.072 17.064 42.024C17.424 41.952 17.784 41.856 18.144 41.736L13.788 37.38L20.448 36.552ZM41.3539 32.052L49.8859 20.856H58.6339L47.8339 33.708L59.6059 48H50.4619L41.3539 36.228H41.2819V48H34.2259V20.856H41.2819V32.052H41.3539ZM72.3071 26.832V48H65.2511V26.832H59.4191V20.856H78.1391V26.832H72.3071ZM94.7424 36.876L103.274 48H94.4904L87.8304 37.56H87.7584V48H80.7024V20.856H91.2504C93.9384 20.88 96.1824 21.564 97.9824 22.908C99.7824 24.228 100.682 26.34 100.682 29.244C100.682 31.116 100.166 32.784 99.1344 34.248C98.1264 35.688 96.6624 36.576 94.7424 36.912V36.876ZM87.7584 26.256V33.024H88.4424C88.5624 33.048 88.6824 33.06 88.8024 33.06C88.9224 33.06 89.0304 33.06 89.1264 33.06C90.1824 33.012 91.1424 32.772 92.0064 32.34C92.8944 31.884 93.3384 30.996 93.3384 29.676C93.3384 28.356 92.8944 27.48 92.0064 27.048C91.1424 26.592 90.1824 26.34 89.1264 26.292C89.0304 26.292 88.9224 26.292 88.8024 26.292C88.6824 26.292 88.5624 26.292 88.4424 26.292L87.7584 26.256Z" fill="black"/>
<path d="M16.5 0L27.3253 18.2143H5.67468L16.5 0Z" fill="#06F31E"/>
<path d="M92.5 68L81.6747 49.7857H103.325L92.5 68Z" fill="#FF6262"/>
</svg>
